<svg xmlns="http://www.w3.org/2000/svg" xmlns:xlink="http://www.w3.org/1999/xlink" preserveAspectRatio="xMidYMid meet" version="1.0" viewBox="-26.7 -32.3 13404.1 1572.7" zoomAndPan="magnify" style="fill: rgb(0, 0, 0);" original_string_length="3269"><g id="__id12_sv4ezfy52s"><path d="M12771,686.2c-19.7-42.8-5.3-78.1,16.6-111.3c62.8-95.2,190.3-134.5,307.9-95.7 c211.4,69.8,281.9,311,141.6,485.6c-63.6,79.1-148.5,125.6-243.9,154.3c-120.5,36.2-244.1,43.5-369.1,35.5 c-187.4-12-369.2-53-547-110.2c-253.5-81.5-505-169-757.9-252.2c-281.3-92.5-568.1-159-864-183.7c-404-33.7-796.9,18.8-1181.4,144.4 C8986.3,846.8,8710.7,969,8438,1099c-206.2,98.3-413.8,194.1-623.8,283.9c-126.6,54.2-261.1,84.6-399.4,97.2 c-207.3,19-402-20.2-584.5-119.8c-28.5-15.6-52.9-25.9-85.4-3.9c-236.7,159.7-496.5,184-765.5,113.2 c-186.3-49.1-370.6-108.1-552.2-172.8c-344.9-122.9-686.1-256.1-1030.8-379.3c-280.4-100.1-567.2-178.4-862.8-220.9 c-364.5-52.4-727.1-37.1-1084.9,45c-337.2,77.4-671.5,167.2-1007.3,250.7c-254.2,63.2-509.5,121.3-772.2,137 c-118.1,7.1-235.5,3.6-349.3-33.1c-121.2-39.1-216.5-111.1-274.8-226.6c-71.8-142.2-57.3-287.1,38.7-398.2 c100.3-116.1,270.1-164.6,411.5-113.8c32.2,11.6,61.4,34.1,88.8,55.7c9.1,7.2,8.3,27,12,41c-13.8,3.3-28.1,10.7-41.4,9.3 c-50.5-5.3-100.5-15.3-151.1-19.8c-23.8-2.1-49.1,1.4-72.5,7.3C233,475.6,153.6,526.4,124,628.2c-29.8,102.5,2.8,193.2,72.8,270.2 c81.7,90,190.7,117.4,306.3,124.9c142.6,9.3,283.7-6.8,423.9-31c356.9-61.7,704.5-162,1054.4-253c244.9-63.7,490.6-123,741.8-157.4 c409.8-56,814.7-28.7,1216.4,64.7c309.7,72.1,610.2,173.9,908.5,282.4c275.3,100.2,548.5,206.2,825.4,301.4 c146.4,50.4,297.3,90.3,448.9,122.3c162.1,34.2,322.7,17.5,473.6-58.5c13.9-7,27.8-13.9,41.1-21.9c5.3-3.2,8.9-9.3,17.5-18.6 c-19.1-16-37.2-31.4-55.7-46.4c-208.4-169.2-365.1-374.5-438.8-636.2c-27.2-96.7-41.6-194.9-20.6-295.9 c45-216.2,256.3-307.5,438.4-183.4c55.7,38,99.6,93.5,147.5,142.4c16.8,17.2,29,38.8,47.5,64c14-14.3,25.3-26.3,37-37.8 c61.4-60.6,119.1-125.7,185.7-179.9c40-32.5,91.9-54.8,142-69.7c123-36.6,226.6,20.7,268.5,141.7c23.7,68.6,25.9,139,16.9,210.4 c-25.7,203.6-113.8,381.3-227.8,547.9c-71.6,104.7-153.8,200.7-247.2,286.8c-16.1,14.8-34.4,27.4-58.9,46.7 c110.8,67,216,104.1,329.9,116.7c154.6,17,305.5-3.6,453.9-47.2c184-54,355.3-138.3,527.8-220.2 c242.5-115.1,483.4-234.1,729.5-341.1c271.2-118,553.3-203.5,846.9-249.4c393.5-61.5,782.7-40.5,1169.8,48.4 c247.2,56.8,485.8,140.7,723.7,226.9c231.6,83.9,462.3,170.8,702.9,226.4c167.4,38.7,336.3,61.3,508.2,32.5 c82.1-13.7,159.4-39.7,225.6-92c90.7-71.6,119.4-173.5,75.6-265.3c-44.6-93.5-157.8-146-264-120.6 C12849.4,576,12801.9,619.5,12771,686.2z M6782.7,1175.8c23.8-18.6,41.8-31.4,58.4-45.8c118.3-102.3,220.3-219,302.6-352.1 c74.2-120,129.1-248,149.2-388.9c8.6-59.9,10-119.8-10.4-177.8c-19.6-55.8-55.7-74.4-109.1-48.9c-37.3,17.8-72.5,43.4-103,71.6 c-72.6,67.2-122.8,150.8-164.4,240.3c-19.6,42.1-41.6,83.5-66.6,122.6c-23.3,36.5-56.5,48.2-91.5,37.5 c-37.9-11.6-58.5-39.5-63.2-77.8c-2.4-19.6,0.1-39.8,0.1-59.8c0-15.4,3.8-32.7-1.7-45.9c-41-98.1-97.6-185.5-192.5-239.3 c-87.9-49.8-165.7-12.5-182.4,88.1c-7.1,43-7.2,89.3-0.1,132.3C6359.6,744.9,6534.2,979.9,6782.7,1175.8z" style="fill: rgb(0, 0, 0);"/></g></svg>